# xmcd
#
# Track frame offsets: 
#        150
#        9600
#        24787
#        39862
#        54450
#        70725
#        85725
#        99862
#        113662
#        128625
#        147900
#        158025
#
# Disc length: 2299 seconds
#
# Revision: 1
# Processed by: cddbd v1.5.1PL2 Copyright (c) Steve Scherf et al.
# Submitted via: ExactAudioCopy v0.95a5
#
DISCID=8308f90c
DTITLE=James Hand - The Truth Will Set You Free
DYEAR=2006
DGENRE=Country
TTITLE0=The Banks of the Brazos
TTITLE1=Baby, Baby, Don't Tell me That
TTITLE2=Here Lies a Good Old Boy
TTITLE3=I've Got a Lot of Hiding Left to Do
TTITLE4=If I Live Long Enough to Heal
TTITLE5=In the Corner, At the Table, By the Jukebox 
TTITLE6=Leave the Lonely Alone
TTITLE7=Little Bitty Slip
TTITLE8=Just an Old Man with an Old Song
TTITLE9=Shadows Where the Magic Was
TTITLE10=The Truth Will Set You Free
TTITLE11=When You Stopped Loving Me, So Did I
EXTD=YEAR: 2006
EXTT0=
EXTT1=
EXTT2=
EXTT3=
EXTT4=
EXTT5=
EXTT6=
EXTT7=
EXTT8=
EXTT9=
EXTT10=
EXTT11=
PLAYORDER=
